<?xml version="1.0"?>
<svg xmlns="http://www.w3.org/2000/svg" viewBox="0 0 400 400" width="400" height="400"><defs><linearGradient id="ge" gradientUnits="userSpaceOnUse" x1="48" y1="200" x2="352" y2="200"><stop offset="0" stop-color="#6fcbe4"></stop><stop offset="0.30" stop-color="#2f93c9"></stop><stop offset="0.50" stop-color="#2b6f9e"></stop><stop offset="0.66" stop-color="#6f7d72"></stop><stop offset="1" stop-color="#d8a86a"></stop></linearGradient></defs><g><line x1="200" y1="46" x2="331.6" y2="122" stroke="url(#ge)" stroke-width="7" stroke-linecap="round" opacity="1"></line><line x1="331.6" y1="122" x2="331.6" y2="274" stroke="url(#ge)" stroke-width="7" stroke-linecap="round" opacity="1"></line><line x1="331.6" y1="274" x2="200" y2="350" stroke="url(#ge)" stroke-width="7" stroke-linecap="round" opacity="1"></line><line x1="200" y1="350" x2="68.4" y2="274" stroke="url(#ge)" stroke-width="7" stroke-linecap="round" opacity="1"></line><line x1="68.4" y1="274" x2="68.4" y2="122" stroke="url(#ge)" stroke-width="7" stroke-linecap="round" opacity="1"></line><line x1="68.4" y1="122" x2="200" y2="46" stroke="url(#ge)" stroke-width="7" stroke-linecap="round" opacity="1"></line><line x1="68.4" y1="122" x2="120" y2="150" stroke="url(#ge)" stroke-width="5" stroke-linecap="round" opacity="0.55"></line><line x1="200" y1="46" x2="222" y2="150" stroke="url(#ge)" stroke-width="5" stroke-linecap="round" opacity="0.55"></line><line x1="68.4" y1="274" x2="120" y2="268" stroke="url(#ge)" stroke-width="5" stroke-linecap="round" opacity="0.55"></line><line x1="200" y1="350" x2="222" y2="272" stroke="url(#ge)" stroke-width="5" stroke-linecap="round" opacity="0.55"></line></g><g><polyline points="120,268 120,150 192,258 222,150" fill="none" stroke="url(#ge)" stroke-width="24" stroke-linejoin="round" stroke-linecap="butt"></polyline><line x1="222" y1="150" x2="331.6" y2="274" stroke="url(#ge)" stroke-width="24" stroke-linecap="butt"></line><line x1="331.6" y1="122" x2="222" y2="272" stroke="url(#ge)" stroke-width="24" stroke-linecap="butt"></line></g><g><circle cx="200" cy="46" r="16" fill="url(#ge)"></circle><circle cx="331.6" cy="122" r="16" fill="url(#ge)"></circle><circle cx="331.6" cy="274" r="16" fill="url(#ge)"></circle><circle cx="200" cy="350" r="16" fill="url(#ge)"></circle><circle cx="68.4" cy="274" r="16" fill="url(#ge)"></circle><circle cx="68.4" cy="122" r="16" fill="url(#ge)"></circle><circle cx="222" cy="150" r="21" fill="url(#ge)"></circle><circle cx="222" cy="272" r="21" fill="url(#ge)"></circle><circle cx="120" cy="268" r="13" fill="url(#ge)"></circle><circle cx="271" cy="205" r="13" fill="url(#ge)"></circle></g></svg>